<svg width="24" height="24" viewBox="0 0 24 24" fill="none" xmlns="http://www.w3.org/2000/svg">
<path d="M17.0382 12.0545C17.023 11.3893 17.1939 10.733 17.5318 10.1597C17.8697 9.58647 18.3611 9.11904 18.9505 8.81018C18.5791 8.29468 18.0933 7.87231 17.5311 7.57627C16.9689 7.28022 16.3457 7.11857 15.7105 7.104C14.3524 6.99491 12.8687 7.896 12.3287 7.896C11.7549 7.896 10.4393 7.14218 9.40618 7.14218C7.268 7.17709 5 8.84509 5 12.2378C5.00817 13.2962 5.19251 14.3458 5.54545 15.3436C6.03527 16.7476 7.80255 20.1905 9.64618 20.1327C10.6105 20.1098 11.2913 19.4476 12.5458 19.4476C13.7622 19.4476 14.3938 20.1327 15.4684 20.1327C17.3229 20.1055 18.9265 16.9767 19.3956 15.5695C18.6978 15.2843 18.1008 14.7976 17.6809 14.1715C17.261 13.5454 17.0372 12.8084 17.0382 12.0545ZM14.8727 5.77309C15.2111 5.40072 15.4677 4.96155 15.6259 4.4839C15.7841 4.00626 15.8405 3.50075 15.7913 3C14.7897 3.10711 13.8638 3.58309 13.1938 4.33527C12.8501 4.70171 12.5856 5.13502 12.4167 5.60817C12.2477 6.08133 12.1781 6.5842 12.212 7.08545C12.7283 7.09667 13.2397 6.98324 13.7029 6.75479C14.1661 6.52634 14.5674 6.18959 14.8727 5.77309Z" fill="#243443"/>
</svg>
